HIERARCHY
ROOT Hips
{
	OFFSET	0.00	0.00	0.00
	CHANNELS 6 Xposition Yposition Zposition Zrotation Xrotation Yrotation
	JOINT LeftUpLeg
	{
		OFFSET	 0.126116	-0.014019	-0.065224
		CHANNELS 3 Zrotation Xrotation Yrotation
		JOINT LeftLeg
		{
			OFFSET	 0.000000	 0.000000	 0.569914
			CHANNELS 3 Zrotation Xrotation Yrotation
			JOINT LeftFoot
			{
				OFFSET	 0.000000	 0.000000	 0.544423
				CHANNELS 3 Zrotation Xrotation Yrotation
				JOINT LeftToeBase
				{
					OFFSET	 0.000000	 0.000000	 0.207117
					CHANNELS 3 Zrotation Xrotation Yrotation
					End Site
					{
						OFFSET	 0.000000	 0.000000	 0.207117
					}
				}
			}
		}
	}
	JOINT RightUpLeg
	{
		OFFSET	-0.124023	-0.008373	-0.065224
		CHANNELS 3 Zrotation Xrotation Yrotation
		JOINT RightLeg
		{
			OFFSET	 0.000000	 0.000000	 0.570047
			CHANNELS 3 Zrotation Xrotation Yrotation
			JOINT RightFoot
			{
				OFFSET	 0.000000	 0.000000	 0.544354
				CHANNELS 3 Zrotation Xrotation Yrotation
				JOINT RightToeBase
				{
					OFFSET	 0.000000	 0.000000	 0.207540
					CHANNELS 3 Zrotation Xrotation Yrotation
					End Site
					{
						OFFSET	 0.000000	 0.000000	 0.207540
					}
				}
			}
		}
	}
	JOINT Spine
	{
		OFFSET	 0.000184	-0.007763	 0.117403
		CHANNELS 3 Zrotation Xrotation Yrotation
		JOINT Spine1
		{
			OFFSET	 0.000000	 0.000000	 0.137269
			CHANNELS 3 Zrotation Xrotation Yrotation
			JOINT Spine2
			{
				OFFSET	 0.000000	 0.000000	 0.156879
				CHANNELS 3 Zrotation Xrotation Yrotation
				JOINT LeftShoulder
				{
					OFFSET	 0.080501	-0.002496	 0.160144
					CHANNELS 3 Zrotation Xrotation Yrotation
					JOINT LeftArm
					{
						OFFSET	 0.000000	 0.000000	 0.164363
						CHANNELS 3 Zrotation Xrotation Yrotation
						JOINT LeftForeArm
						{
							OFFSET	 0.000000	 0.000000	 0.364576
							CHANNELS 3 Zrotation Xrotation Yrotation
							JOINT LeftHand
							{
								OFFSET	 0.000000	 0.000000	 0.360812
								CHANNELS 3 Zrotation Xrotation Yrotation
								JOINT LeftHandIndex1
								{
									OFFSET	 0.000000	 0.000000	 0.086006
									CHANNELS 3 Zrotation Xrotation Yrotation
									JOINT LeftHandIndex2
									{
										OFFSET	 0.000000	 0.000000	 0.047237
										CHANNELS 3 Zrotation Xrotation Yrotation
										JOINT LeftHandIndex3
										{
											OFFSET	-0.004284	-0.000551	 0.038165
											CHANNELS 3 Zrotation Xrotation Yrotation
											End Site
											{
												OFFSET	-0.004284	-0.000551	 0.038165
											}
										}
									}
								}
							}
						}
					}
				}
				JOINT Neck
				{
					OFFSET	 0.000000	 0.000000	 0.176489
					CHANNELS 3 Zrotation Xrotation Yrotation
					JOINT Head
					{
						OFFSET	 0.000000	-0.001747	 0.077940
						CHANNELS 3 Zrotation Xrotation Yrotation
						End Site
						{
							OFFSET	 0.000000	-0.001747	 0.077940
						}
					}
				}
				JOINT RightShoulder
				{
					OFFSET	-0.080363	 0.000306	 0.159706
					CHANNELS 3 Zrotation Xrotation Yrotation
					JOINT RightArm
					{
						OFFSET	 0.000000	 0.000000	 0.164196
						CHANNELS 3 Zrotation Xrotation Yrotation
						JOINT RightForeArm
						{
							OFFSET	 0.000000	 0.000000	 0.365611
							CHANNELS 3 Zrotation Xrotation Yrotation
							JOINT RightHand
							{
								OFFSET	 0.000000	 0.000000	 0.360648
								CHANNELS 3 Zrotation Xrotation Yrotation
								JOINT RightHandIndex1
								{
									OFFSET	 0.000000	 0.000000	 0.069977
									CHANNELS 3 Zrotation Xrotation Yrotation
									JOINT RightHandIndex2
									{
										OFFSET	 0.000000	 0.000000	 0.052305
										CHANNELS 3 Zrotation Xrotation Yrotation
										JOINT RightHandIndex3
										{
											OFFSET	 0.009002	-0.000782	 0.042196
											CHANNELS 3 Zrotation Xrotation Yrotation
											End Site
											{
												OFFSET	 0.009002	-0.000782	 0.042196
											}
										}
									}
								}
							}
						}
					}
				}
			}
		}
	}
}
MOTION
Frames:    4
Frame Time: 0.03333334
-0.713783	-0.007645	 1.269060	-176.379900	-8.132430	-1.579582	 11.700280	 4.919102	 176.024300	-6.420885	-16.963770	-2.313818	-10.953990	 73.747310	 4.930783	-2.385833	 28.452760	 0.000004	-9.688447	 5.939488	-175.519400	 3.657506	-18.164880	 1.210627	 9.362670	 75.652110	-4.564204	 2.384659	 28.388700	-0.000001	 6.771677	 9.125489	-1.293752	 3.327590	 11.453120	 11.148670	-21.342820	-6.096175	-18.822950	-91.776130	 78.527380	 180.000000	 6.541996	 38.781470	 18.047430	-17.856080	-3.848596	-82.099470	-1.892559	-14.013990	-2.297511	-4.130354	 21.526190	 0.991307	-5.167926	 0.731697	 3.519349	-1.378229	 35.397820	-2.634230	-9.281392	 1.519487	 4.412711	-10.341860	-17.995290	-7.237370	 89.782110	 78.203890	 180.000000	 34.272300	 25.171610	-17.487570	 11.649390	-3.567633	 86.045940	 33.731770	 0.203381	-34.495980	 5.716295	 19.173350	-3.684826	 5.027458	 0.246833	-9.377971	-2.350882	 35.473990	 5.254307
-0.713733	-0.007814	 1.268631	-176.302400	-8.383736	-1.602481	 12.082150	 4.852381	 175.730100	-6.745131	-17.867310	-2.534272	-11.161760	 74.019640	 5.466815	-2.385833	 28.452760	 0.000004	-9.911656	 6.299109	-175.339300	 3.873220	-18.530880	 1.303018	 9.635482	 75.742820	-5.055305	 2.384659	 28.388700	-0.000001	 6.458006	 9.379902	-1.333899	 3.006572	 11.210920	 11.265210	-21.432330	-6.005264	-18.929650	-91.776250	 78.527420	-179.999900	 6.502325	 43.491160	 17.413370	-17.891630	-3.737229	-82.404210	-2.180296	-14.298630	-2.310866	-4.130354	 21.526190	 0.991307	-5.167926	 0.731697	 3.519349	-1.378229	 35.397820	-2.634230	-9.449726	 1.591388	 4.556864	-10.491340	-18.141030	-7.469365	 89.782100	 78.203890	 180.000000	 32.075820	 28.292260	-18.646390	 11.867170	-3.394909	 89.517590	 33.765240	-2.494521	-32.640660	 5.716295	 19.173350	-3.684826	 5.027458	 0.246833	-9.377971	-2.350882	 35.473990	 5.254307
-0.713891	-0.008862	 1.266032	-176.146800	-8.940364	-1.481719	 11.432540	 3.896292	 174.553000	-6.816118	-23.155580	-3.275124	-21.883350	 77.215870	 16.497050	-2.385833	 28.452760	 0.000004	-9.575540	 7.850760	-175.044600	 3.737657	-20.530240	 1.390048	 16.651560	 78.579000	-12.130210	 2.384659	 28.388700	-0.000001	 4.274107	 10.100950	-1.878593	 0.548025	 7.924292	 11.865450	-20.586710	-3.896822	-18.364650	-91.776150	 78.527400	 180.000000	 13.812210	 67.403370	-0.060591	-16.551300	-4.054121	-65.598210	-2.039013	-14.054080	-2.377669	-4.130354	 21.526190	 0.991307	-5.167926	 0.731697	 3.519349	-1.378229	 35.397820	-2.634230	-9.354892	 1.499139	 4.803624	-10.363530	-17.654130	-7.919074	 89.782190	 78.203870	 179.999900	 5.033504	 46.450470	-11.239700	 12.550290	-3.313288	 101.192500	 22.418840	-19.807540	-19.852090	 5.716295	 19.173350	-3.684826	 5.027458	 0.246833	-9.377971	-2.350882	 35.473990	 5.254307
-0.714406	-0.010091	 1.264079	-175.965100	-9.454174	-1.512820	 11.098730	 3.623170	 173.484200	-7.064944	-26.982750	-3.892439	-35.913550	 79.221790	 31.005970	-2.385833	 28.452760	 0.000004	-9.343744	 9.652842	-174.556800	 3.741754	-21.857640	 1.477161	 24.415110	 80.809120	-19.994300	 2.384659	 28.388700	-0.000001	 1.981697	 10.992620	-1.998899	-1.839852	 4.441979	 11.692100	-19.830800	-1.907334	-17.402170	-91.776160	 78.527380	 180.000000	 29.267900	 72.874950	-46.881160	-13.244880	-0.043618	-0.533452	-2.074080	-13.942150	-2.430849	-4.130354	 21.526190	 0.991307	-5.167926	 0.731697	 3.519349	-1.378229	 35.397820	-2.634230	-9.241626	 1.347507	 4.863765	-10.242310	-17.184540	-8.053375	 89.782120	 78.203900	 180.000000	-34.650610	 58.519170	 21.604310	 12.224190	-3.378736	 95.582960	 10.490700	-32.202930	-2.051857	 5.716295	 19.173350	-3.684826	 5.027458	 0.246833	-9.377971	-2.350882	 35.473990	 5.254307
